<svg xmlns="http://www.w3.org/2000/svg" xmlns:xlink="http://www.w3.org/1999/xlink" viewBox="0,0,256,256" width="48px" height="48px" fill-rule="nonzero"><g fill="none" fill-rule="nonzero" stroke="none" stroke-width="1" stroke-linecap="butt" stroke-linejoin="miter" stroke-miterlimit="10" stroke-dasharray="" stroke-dashoffset="0" font-family="none" font-weight="none" font-size="none" text-anchor="none" style="mix-blend-mode: normal"><g transform="scale(5.33333,5.33333)"><path d="M6,10c0,-2.209 1.791,-4 4,-4h28c2.209,0 4,1.791 4,4v28c0,2.209 -1.791,4 -4,4h-28c-2.209,0 -4,-1.791 -4,-4z" fill="#272343"></path><path d="M24,34c-1.10457,0 -2,0.89543 -2,2c0,1.10457 0.89543,2 2,2c1.10457,0 2,-0.89543 2,-2c0,-1.10457 -0.89543,-2 -2,-2zM31,34c-1.10457,0 -2,0.89543 -2,2c0,1.10457 0.89543,2 2,2c1.10457,0 2,-0.89543 2,-2c0,-1.10457 -0.89543,-2 -2,-2zM17,34c-1.10457,0 -2,0.89543 -2,2c0,1.10457 0.89543,2 2,2c1.10457,0 2,-0.89543 2,-2c0,-1.10457 -0.89543,-2 -2,-2z" fill="#00e676"></path><path d="M24,16c-0.552,0 -1,0.448 -1,1v2h2v-2c0,-0.552 -0.448,-1 -1,-1z" fill="#ffffff"></path><path d="M24,10c-7.179,0 -13,4.253 -13,9.5c0,0.169 0.023,0.333 0.035,0.5h-0.035c0,4 3,6 3,7c0,1 -2,4 -2,4c0,0 5,-2 8,-2c3,0 4,0 4,0c7.179,0 13,-4.254 13,-9.5c0,-5.247 -5.82,-9.5 -13,-9.5zM28,24c0,0.552 -0.448,1 -1,1h-6c-0.552,0 -1,-0.448 -1,-1v-4c0,-0.552 0.448,-1 1,-1v-2c0,-1.654 1.346,-3 3,-3c1.654,0 3,1.346 3,3v2c0.552,0 1,0.448 1,1z" fill="#ffffff"></path></g></g></svg>